<mxfile host="app.diagrams.net" modified="2024-01-10T21:23:27.815Z" agent="Mozilla/5.0 (Macintosh; Intel Mac OS X 10_15_7) AppleWebKit/537.36 (KHTML, like Gecko) Chrome/120.0.0.0 Safari/537.36" etag="Uglcgn6S8_rol7bueFND" version="22.1.18" type="github">
  <diagram name="Page-1" id="19d8dcba-68ad-dc05-1034-9cf7b2a963f6">
    <mxGraphModel dx="2034" dy="881" grid="1" gridSize="10" guides="1" tooltips="1" connect="1" arrows="1" fold="1" page="1" pageScale="1" pageWidth="1100" pageHeight="850" background="none" math="0" shadow="0">
      <root>
        <mxCell id="0" />
        <mxCell id="1" parent="0" />
        <mxCell id="218ae93e1282097f-42" value="" style="edgeStyle=orthogonalEdgeStyle;rounded=1;html=1;labelBackgroundColor=none;endArrow=block;endFill=1;strokeColor=#4D4D4D;strokeWidth=2;fontFamily=Verdana;fontSize=12;fontStyle=1;entryX=0.55;entryY=0;entryDx=0;entryDy=0;entryPerimeter=0;" parent="1" source="6257edae8c83ed4a-1" target="ilBocAJCW0qdLJUAT_6Z-22" edge="1">
          <mxGeometry relative="1" as="geometry">
            <mxPoint x="987" y="330" as="targetPoint" />
          </mxGeometry>
        </mxCell>
        <mxCell id="218ae93e1282097f-43" value="" style="edgeStyle=orthogonalEdgeStyle;rounded=1;html=1;labelBackgroundColor=none;endArrow=block;endFill=1;strokeColor=#4D4D4D;strokeWidth=2;fontFamily=Verdana;fontSize=12;fontStyle=1" parent="1" source="6257edae8c83ed4a-1" target="6257edae8c83ed4a-9" edge="1">
          <mxGeometry relative="1" as="geometry" />
        </mxCell>
        <mxCell id="218ae93e1282097f-44" value="" style="edgeStyle=orthogonalEdgeStyle;rounded=1;html=1;labelBackgroundColor=none;endArrow=block;endFill=1;strokeColor=#4D4D4D;strokeWidth=2;fontFamily=Verdana;fontSize=12;fontStyle=1" parent="1" source="6257edae8c83ed4a-1" target="218ae93e1282097f-2" edge="1">
          <mxGeometry relative="1" as="geometry" />
        </mxCell>
        <mxCell id="218ae93e1282097f-45" value="" style="edgeStyle=elbowEdgeStyle;rounded=1;html=1;labelBackgroundColor=none;endArrow=block;endFill=1;strokeColor=#4D4D4D;strokeWidth=2;fontFamily=Verdana;fontSize=12;fontStyle=1" parent="1" source="6257edae8c83ed4a-9" target="6257edae8c83ed4a-21" edge="1">
          <mxGeometry relative="1" as="geometry" />
        </mxCell>
        <mxCell id="218ae93e1282097f-46" value="" style="edgeStyle=orthogonalEdgeStyle;rounded=1;html=1;labelBackgroundColor=none;endArrow=block;endFill=1;strokeColor=#4D4D4D;strokeWidth=2;fontFamily=Verdana;fontSize=12;fontStyle=1" parent="1" source="6257edae8c83ed4a-9" target="218ae93e1282097f-8" edge="1">
          <mxGeometry relative="1" as="geometry" />
        </mxCell>
        <mxCell id="218ae93e1282097f-8" value="SubGroup 1&lt;br&gt;groupId = sg1" style="whiteSpace=wrap;html=1;rounded=1;shadow=0;comic=0;strokeWidth=2;fontFamily=Verdana;align=center;fontSize=12;fontStyle=1" parent="1" vertex="1">
          <mxGeometry x="144" y="330" width="200" height="50" as="geometry" />
        </mxCell>
        <mxCell id="6257edae8c83ed4a-9" value="Group 1&lt;br&gt;groupId = g1" style="whiteSpace=wrap;html=1;rounded=1;shadow=0;comic=0;strokeWidth=2;fontFamily=Verdana;align=center;fontSize=12;fontStyle=1" parent="1" vertex="1">
          <mxGeometry x="526" y="210" width="200" height="50" as="geometry" />
        </mxCell>
        <mxCell id="6257edae8c83ed4a-21" value="SubGroup 2&lt;br&gt;groupId = sg2" style="whiteSpace=wrap;html=1;rounded=1;shadow=0;comic=0;strokeWidth=2;fontFamily=Verdana;align=center;fontSize=12;fontStyle=1" parent="1" vertex="1">
          <mxGeometry x="480" y="330" width="200" height="50" as="geometry" />
        </mxCell>
        <mxCell id="6257edae8c83ed4a-1" value="Company&lt;br&gt;companyId = 1" style="whiteSpace=wrap;html=1;rounded=1;shadow=0;comic=0;strokeWidth=2;fontFamily=Verdana;align=center;fontSize=12;fontStyle=1" parent="1" vertex="1">
          <mxGeometry x="880" y="70" width="200" height="50" as="geometry" />
        </mxCell>
        <mxCell id="218ae93e1282097f-2" value="Group 3&lt;br&gt;groupId = g3" style="whiteSpace=wrap;html=1;rounded=1;shadow=0;comic=0;strokeWidth=2;fontFamily=Verdana;align=center;fontSize=12;fontStyle=1" parent="1" vertex="1">
          <mxGeometry x="1220" y="280" width="200" height="50" as="geometry" />
        </mxCell>
        <mxCell id="ilBocAJCW0qdLJUAT_6Z-4" value="Provider 1&lt;br&gt;npi = 1" style="whiteSpace=wrap;html=1;rounded=1;shadow=0;comic=0;strokeWidth=2;fontFamily=Verdana;align=center;fontSize=12;fontStyle=1" vertex="1" parent="1">
          <mxGeometry x="50" y="470" width="200" height="50" as="geometry" />
        </mxCell>
        <mxCell id="ilBocAJCW0qdLJUAT_6Z-6" value="Provider 2&lt;br&gt;npi = 2" style="whiteSpace=wrap;html=1;rounded=1;shadow=0;comic=0;strokeWidth=2;fontFamily=Verdana;align=center;fontSize=12;fontStyle=1" vertex="1" parent="1">
          <mxGeometry x="40" y="565" width="200" height="50" as="geometry" />
        </mxCell>
        <mxCell id="ilBocAJCW0qdLJUAT_6Z-14" value="" style="edgeStyle=elbowEdgeStyle;rounded=1;html=1;labelBackgroundColor=none;endArrow=block;endFill=1;strokeColor=#4D4D4D;strokeWidth=2;fontFamily=Verdana;fontSize=10;exitX=0.75;exitY=1;exitDx=0;exitDy=0;" edge="1" parent="1" source="218ae93e1282097f-8" target="ilBocAJCW0qdLJUAT_6Z-6">
          <mxGeometry relative="1" as="geometry">
            <mxPoint x="330" y="510" as="sourcePoint" />
            <mxPoint x="246" y="478" as="targetPoint" />
            <Array as="points">
              <mxPoint x="294" y="480" />
              <mxPoint x="250" y="480" />
            </Array>
          </mxGeometry>
        </mxCell>
        <mxCell id="ilBocAJCW0qdLJUAT_6Z-17" value="" style="edgeStyle=elbowEdgeStyle;rounded=1;html=1;labelBackgroundColor=none;endArrow=block;endFill=1;strokeColor=#4D4D4D;strokeWidth=2;fontFamily=Verdana;fontSize=10;exitX=0.75;exitY=1;exitDx=0;exitDy=0;entryX=1;entryY=0.5;entryDx=0;entryDy=0;" edge="1" parent="1" source="218ae93e1282097f-8" target="ilBocAJCW0qdLJUAT_6Z-4">
          <mxGeometry relative="1" as="geometry">
            <mxPoint x="304" y="390" as="sourcePoint" />
            <mxPoint x="260" y="585" as="targetPoint" />
            <Array as="points">
              <mxPoint x="294" y="450" />
            </Array>
          </mxGeometry>
        </mxCell>
        <mxCell id="ilBocAJCW0qdLJUAT_6Z-18" value="Provider 3&lt;br&gt;npi = 3" style="whiteSpace=wrap;html=1;rounded=1;shadow=0;comic=0;strokeWidth=2;fontFamily=Verdana;align=center;fontSize=12;fontStyle=1" vertex="1" parent="1">
          <mxGeometry x="390" y="455" width="200" height="50" as="geometry" />
        </mxCell>
        <mxCell id="ilBocAJCW0qdLJUAT_6Z-19" value="Provider 4&lt;br&gt;npi = 4" style="whiteSpace=wrap;html=1;rounded=1;shadow=0;comic=0;strokeWidth=2;fontFamily=Verdana;align=center;fontSize=12;fontStyle=1" vertex="1" parent="1">
          <mxGeometry x="380" y="550" width="200" height="50" as="geometry" />
        </mxCell>
        <mxCell id="ilBocAJCW0qdLJUAT_6Z-20" value="" style="edgeStyle=elbowEdgeStyle;rounded=1;html=1;labelBackgroundColor=none;endArrow=block;endFill=1;strokeColor=#4D4D4D;strokeWidth=2;fontFamily=Verdana;fontSize=10;entryX=1;entryY=0.5;entryDx=0;entryDy=0;" edge="1" parent="1" target="ilBocAJCW0qdLJUAT_6Z-19">
          <mxGeometry relative="1" as="geometry">
            <mxPoint x="654" y="380" as="sourcePoint" />
            <mxPoint x="610" y="570" as="targetPoint" />
            <Array as="points">
              <mxPoint x="654" y="475" />
              <mxPoint x="610" y="475" />
            </Array>
          </mxGeometry>
        </mxCell>
        <mxCell id="ilBocAJCW0qdLJUAT_6Z-21" value="" style="edgeStyle=elbowEdgeStyle;rounded=1;html=1;labelBackgroundColor=none;endArrow=block;endFill=1;strokeColor=#4D4D4D;strokeWidth=2;fontFamily=Verdana;fontSize=10;exitX=0.865;exitY=1.04;exitDx=0;exitDy=0;exitPerimeter=0;" edge="1" parent="1" source="6257edae8c83ed4a-21" target="ilBocAJCW0qdLJUAT_6Z-18">
          <mxGeometry relative="1" as="geometry">
            <mxPoint x="660" y="380" as="sourcePoint" />
            <mxPoint x="610" y="490" as="targetPoint" />
            <Array as="points">
              <mxPoint x="654" y="445" />
            </Array>
          </mxGeometry>
        </mxCell>
        <mxCell id="ilBocAJCW0qdLJUAT_6Z-22" value="Group 2&lt;br&gt;groupId = g2" style="whiteSpace=wrap;html=1;rounded=1;shadow=0;comic=0;strokeWidth=2;fontFamily=Verdana;align=center;fontSize=12;fontStyle=1" vertex="1" parent="1">
          <mxGeometry x="870" y="290" width="200" height="50" as="geometry" />
        </mxCell>
        <mxCell id="ilBocAJCW0qdLJUAT_6Z-23" value="Provider 5&lt;br&gt;npi = 5" style="whiteSpace=wrap;html=1;rounded=1;shadow=0;comic=0;strokeWidth=2;fontFamily=Verdana;align=center;fontSize=12;fontStyle=1" vertex="1" parent="1">
          <mxGeometry x="730" y="450" width="200" height="50" as="geometry" />
        </mxCell>
        <mxCell id="ilBocAJCW0qdLJUAT_6Z-24" value="Provider 6&lt;br&gt;npi = 6" style="whiteSpace=wrap;html=1;rounded=1;shadow=0;comic=0;strokeWidth=2;fontFamily=Verdana;align=center;fontSize=12;fontStyle=1" vertex="1" parent="1">
          <mxGeometry x="731" y="540" width="200" height="50" as="geometry" />
        </mxCell>
        <mxCell id="ilBocAJCW0qdLJUAT_6Z-25" value="" style="edgeStyle=elbowEdgeStyle;rounded=1;html=1;labelBackgroundColor=none;endArrow=block;endFill=1;strokeColor=#4D4D4D;strokeWidth=2;fontFamily=Verdana;fontSize=10;entryX=1;entryY=0.5;entryDx=0;entryDy=0;" edge="1" parent="1" source="ilBocAJCW0qdLJUAT_6Z-22" target="ilBocAJCW0qdLJUAT_6Z-24">
          <mxGeometry relative="1" as="geometry">
            <mxPoint x="964" y="325" as="sourcePoint" />
            <mxPoint x="920" y="520" as="targetPoint" />
            <Array as="points">
              <mxPoint x="964" y="425" />
              <mxPoint x="920" y="425" />
            </Array>
          </mxGeometry>
        </mxCell>
        <mxCell id="ilBocAJCW0qdLJUAT_6Z-26" value="" style="edgeStyle=elbowEdgeStyle;rounded=1;html=1;labelBackgroundColor=none;endArrow=block;endFill=1;strokeColor=#4D4D4D;strokeWidth=2;fontFamily=Verdana;fontSize=10;entryX=1;entryY=0.25;entryDx=0;entryDy=0;exitX=0.47;exitY=1;exitDx=0;exitDy=0;exitPerimeter=0;" edge="1" parent="1" source="ilBocAJCW0qdLJUAT_6Z-22" target="ilBocAJCW0qdLJUAT_6Z-23">
          <mxGeometry relative="1" as="geometry">
            <mxPoint x="964" y="350" as="sourcePoint" />
            <mxPoint x="920" y="440" as="targetPoint" />
            <Array as="points">
              <mxPoint x="964" y="395" />
            </Array>
          </mxGeometry>
        </mxCell>
        <mxCell id="ilBocAJCW0qdLJUAT_6Z-28" value="Provider 5&lt;br&gt;npi = 5" style="whiteSpace=wrap;html=1;rounded=1;shadow=0;comic=0;strokeWidth=2;fontFamily=Verdana;align=center;fontSize=12;fontStyle=1" vertex="1" parent="1">
          <mxGeometry x="1087" y="440" width="200" height="50" as="geometry" />
        </mxCell>
        <mxCell id="ilBocAJCW0qdLJUAT_6Z-29" value="Provider 6&lt;br&gt;npi = 6" style="whiteSpace=wrap;html=1;rounded=1;shadow=0;comic=0;strokeWidth=2;fontFamily=Verdana;align=center;fontSize=12;fontStyle=1" vertex="1" parent="1">
          <mxGeometry x="1085" y="530" width="200" height="50" as="geometry" />
        </mxCell>
        <mxCell id="ilBocAJCW0qdLJUAT_6Z-30" value="" style="edgeStyle=elbowEdgeStyle;rounded=1;html=1;labelBackgroundColor=none;endArrow=block;endFill=1;strokeColor=#4D4D4D;strokeWidth=2;fontFamily=Verdana;fontSize=10;entryX=1;entryY=0.5;entryDx=0;entryDy=0;" edge="1" parent="1" target="ilBocAJCW0qdLJUAT_6Z-29">
          <mxGeometry relative="1" as="geometry">
            <mxPoint x="1320" y="330" as="sourcePoint" />
            <mxPoint x="990" y="575" as="targetPoint" />
            <Array as="points">
              <mxPoint x="1320" y="430" />
              <mxPoint x="979" y="435" />
            </Array>
          </mxGeometry>
        </mxCell>
        <mxCell id="ilBocAJCW0qdLJUAT_6Z-31" value="" style="edgeStyle=elbowEdgeStyle;rounded=1;html=1;labelBackgroundColor=none;endArrow=block;endFill=1;strokeColor=#4D4D4D;strokeWidth=2;fontFamily=Verdana;fontSize=10;entryX=1;entryY=0.5;entryDx=0;entryDy=0;" edge="1" parent="1" target="ilBocAJCW0qdLJUAT_6Z-28">
          <mxGeometry relative="1" as="geometry">
            <mxPoint x="1320" y="330" as="sourcePoint" />
            <mxPoint x="1370" y="373" as="targetPoint" />
            <Array as="points">
              <mxPoint x="1320" y="400" />
            </Array>
          </mxGeometry>
        </mxCell>
      </root>
    </mxGraphModel>
  </diagram>
</mxfile>
